<svg xmlns="http://www.w3.org/2000/svg" width="340" height="340">
  <g fill="#fff" fill-rule="nonzero">
    <path d="M64.16 57.5h55v225h-55z" />
    <path d="M.528 121.143l63.64-63.64 7.07 7.071L7.6 128.214zM174.16 57.5h55v225h-55z" />
    <path d="M110.53 121.14l63.64-63.639 7.07 7.071-63.64 63.64zM284.16 57.5h55v225h-55z" />
    <path d="M220.531 121.14l63.64-63.64 7.071 7.07-63.64 63.64z" />
    <path d="M284.16 58L229 112.5V58h-54.84L119 112.5V58H64.16L.52 121.39l6.99 6.95L64 71.64V283h55V126.64l55-55V283h55V126.64l55-55V283h55V58z" />
  </g>
</svg>
