<svg width="20" height="20" fill="none" xmlns="http://www.w3.org/2000/svg">
  <style>@media (prefers-color-scheme: light){path{fill:#fff;}circle{fill:#1a1a1a;}}</style>
  <circle cx="10" cy="10" r="10" fill="#fff" />
  <path fill="#1a1a1a" d="M8.808 4H6.94c.04.244.095.907.095 1.192 0 .23 0 .623-.014 1.097-.27.013-.541.027-.785.027-.488 0-1.07-.014-1.87-.108l.028 1.638c.46.055.988.068 1.896.068.217 0 .46-.013.718-.027v1.138c0 .311 0 .636.013.961-1.666.718-3.02 1.95-3.02 3.13 0 1.435 1.856 2.572 3.17 2.572.893 0 1.49-.447 1.49-2.126 0-.46-.028-1.517-.055-2.587a9.131 9.131 0 0 1 2.546-.38c1.179 0 1.991.543 1.991 1.464 0 .988-.867 1.53-1.964 1.733-.474.082-1.056.095-1.666.095l.623 1.747c.556-.04 1.152-.081 1.775-.216 2.153-.542 2.993-1.748 2.993-3.346 0-1.869-1.639-2.952-3.725-2.952-.745 0-1.68.122-2.6.352V8.97c0-.393 0-.813.013-1.22.88-.108 1.815-.243 2.587-.42l-.04-1.679c-.705.204-1.598.38-2.492.488.013-.339.027-.664.04-.962.027-.352.081-.934.122-1.178Zm3.86 1.463-.745 1.314c.84.406 2.614 1.422 3.264 1.977L16 7.372c-.718-.514-2.289-1.408-3.332-1.91Zm-7.002 7.584c0-.474.555-1.029 1.381-1.476.027.732.041 1.354.041 1.693 0 .46-.19.569-.433.569-.353 0-.99-.366-.99-.786Z" />
</svg>
